<?xml version="1.0" encoding="utf-8"?>
<!-- Generator: Adobe Illustrator 24.2.3, SVG Export Plug-In . SVG Version: 6.00 Build 0)  -->
<svg width="106px" height="112px" version="1.1" id="Layer_1" xmlns="http://www.w3.org/2000/svg" xmlns:xlink="http://www.w3.org/1999/xlink" x="0px" y="0px"
	 viewBox="0 0 360 378" style="enable-background:new 0 0 360 378;" xml:space="preserve">
<style type="text/css">
	.st0{fill:#646564;}
	.st1{fill:#F70114;}
	.st2{fill:#E61E27;}
	.st3{fill:#656464;}
</style>
<g>
	<g>
		<path class="st0" d="M63.3,289.5c-1.2,0-2.4-0.2-3.6-0.6c-1.2-0.4-2-1-3.2-1.8c-0.8-0.8-1.6-1.8-2.2-3.2c-0.6-1.2-0.8-2.8-0.8-4.4
			c0-1.4,0.2-3,0.8-4.4s1.4-2.6,2.6-3.6c1-1,2.4-1.8,3.8-2.6c1.4-0.8,3.2-0.8,4.8-0.8s3.4,0.2,4.8,0.8c1.4,0.6,2.6,1.2,3.6,2.4
			c1,1,1.6,2.4,2.4,3.6c0.6,1.4,0.8,3,0.8,4.6c0,1,0,2.2-0.2,3c-0.2,1-0.4,1.8-0.8,2.8c-0.4,0.8-0.8,1.6-1.2,2.6
			c-0.4,0.8-1,1.6-1.6,2.6l-8,11.4c-0.2,0.4-0.6,0.6-1.2,1c-0.6,0.2-1,0.4-1.8,0.4h-5.4l10.8-13.4c0.2-0.4,0.6-0.6,0.8-1
			c0.2-0.4,0.4-0.6,0.6-1c-0.8,0.4-1.6,0.8-2.8,1.2C65.5,289.3,64.3,289.5,63.3,289.5z M71.3,278.9c0-0.8-0.2-1.6-0.4-2.6
			c-0.2-0.8-0.6-1.4-1.2-1.8s-1-0.8-1.8-1.2c-0.6-0.2-1.4-0.4-2.4-0.4c-0.8,0-1.6,0.2-2.6,0.4c-0.8,0.2-1.2,0.6-1.8,1.2
			c-0.4,0.4-0.8,1-1.2,1.8c-0.2,0.6-0.4,1.4-0.4,2.4c0,1.8,0.4,3.4,1.4,4.4s2.4,1.4,4.2,1.4c1,0,1.8-0.2,2.6-0.4
			c0.8-0.2,1.4-0.6,1.8-1.2c0.4-0.4,0.8-1,1.2-1.8C71.3,280.7,71.3,279.9,71.3,278.9z"/>
		<path class="st0" d="M104.9,285.9c0,3-0.4,5.6-1,7.8c-0.6,2.2-1.4,4-2.8,5.4s-2.6,2.6-4,3.2s-3.2,1-5,1s-3.6-0.4-5-1s-3-1.8-4-3.2
			s-2-3.4-2.8-5.4s-1-4.8-1-7.8s0.4-5.6,1-7.8s1.4-4,2.8-5.4c1-1.4,2.6-2.6,4-3.2s3.2-1,5-1s3.6,0.4,5,1s3,1.8,4,3.2
			c1,1.4,2,3.4,2.8,5.4C104.5,280.3,104.9,282.7,104.9,285.9z M98.9,285.9c0-2.6-0.2-4.6-0.6-6.2s-0.8-3-1.4-4s-1.2-1.6-2-2.2
			s-1.6-0.6-2.6-0.6s-1.6,0.2-2.6,0.6c-0.8,0.4-1.4,1-2,2.2c-0.6,1-1,2.4-1.4,4s-0.6,3.8-0.6,6.2s0.2,4.6,0.6,6.2s0.8,3,1.4,4
			s1.2,1.6,2,2.2c0.8,0.4,1.6,0.6,2.6,0.6s1.6-0.2,2.6-0.6c0.8-0.4,1.4-1,2-2.2c0.6-1,1-2.4,1.4-4S98.9,288.5,98.9,285.9z"/>
		<path class="st0" d="M132.7,285.9c0,3-0.4,5.6-1,7.8s-1.4,4-2.8,5.4c-1.2,1.4-2.6,2.6-4,3.2s-3.2,1-5,1s-3.6-0.4-5-1s-3-1.8-4-3.2
			s-2-3.4-2.8-5.4s-1-4.8-1-7.8s0.4-5.6,1-7.8s1.4-4,2.8-5.4c1-1.4,2.6-2.6,4-3.2s3.2-1,5-1s3.6,0.4,5,1s3,1.8,4,3.2
			c1,1.4,2,3.4,2.8,5.4S132.7,282.7,132.7,285.9z M126.5,285.9c0-2.6-0.2-4.6-0.6-6.2s-0.8-3-1.4-4s-1.2-1.6-2-2.2s-1.6-0.6-2.6-0.6
			s-1.6,0.2-2.6,0.6c-0.8,0.4-1.4,1-2,2.2c-0.6,1-1,2.4-1.4,4s-0.6,3.8-0.6,6.2s0.2,4.6,0.6,6.2s0.8,3,1.4,4s1.2,1.6,2,2.2
			c0.8,0.4,1.6,0.6,2.6,0.6s1.6-0.2,2.6-0.6c0.8-0.4,1.4-1,2-2.2c0.6-1,1-2.4,1.4-4S126.5,288.5,126.5,285.9z"/>
		<path class="st0" d="M150.1,275.3v9.8h9.2v4.4h-9.2v9.8h-4.8v-9.8h-9.2v-4.4h9.2v-9.8H150.1z"/>
		<path class="st0" d="M191.3,303.1c-0.8,0-1.2-0.4-1.4-1l-0.4-2.4c-0.4,0.6-1,1-1.6,1.4s-1.2,0.8-1.8,1.2c-0.6,0.4-1.2,0.6-2,0.8
			c-0.8,0.2-1.4,0.2-2.4,0.2c-1.2,0-2.6-0.2-3.8-0.8c-1-0.6-2.2-1.4-3-2.6c-0.8-1-1.4-2.4-1.8-4c-0.4-1.4-0.6-3.4-0.6-5.4
			c0-1.8,0.2-3.6,0.8-5s1.2-3,2.2-4c0.8-1,2-2.2,3.4-2.8c1.2-0.6,2.8-1,4.4-1c1.4,0,2.6,0.2,3.6,0.6s1.8,1,2.6,1.6v-13h5.8v36h-4
			V303.1z M183.5,298.9c1.2,0,2.4-0.2,3.2-0.8c0.8-0.6,1.6-1.2,2.6-2.2v-11c-0.6-0.8-1.4-1.4-2.2-1.6c-0.8-0.4-1.6-0.4-2.6-0.4
			c-0.8,0-1.6,0.2-2.6,0.4c-0.6,0.4-1.2,0.8-1.8,1.4c-0.4,0.6-0.8,1.4-1.2,2.6c-0.2,1-0.4,2.4-0.4,3.8s0.2,2.8,0.4,3.6
			c0.2,1,0.6,1.8,1,2.6s1,1,1.6,1.2S182.7,298.9,183.5,298.9z"/>
		<path class="st0" d="M211.3,278.3c1.4,0,3,0.2,4.2,0.8s2.6,1.2,3.4,2.2s1.6,2.2,2.2,3.6c0.4,1.4,0.8,3,0.8,4.6c0,0.4,0,0.8,0,1
			s-0.2,0.6-0.2,0.6c0,0.2-0.2,0.2-0.4,0.4c-0.2,0-0.4,0.2-0.6,0.2h-15.2c0.2,2.6,0.8,4.4,2.2,5.4c1.2,1.2,2.8,1.6,4.6,1.6
			c1,0,1.6-0.2,2.6-0.4c0.6-0.2,1.2-0.4,1.8-0.8c0.4-0.2,1-0.4,1.2-0.8c0.4-0.2,0.8-0.4,1-0.4s0.4,0,0.6,0.2c0.2,0,0.4,0.2,0.4,0.4
			l1.6,2.2c-0.6,0.8-1.4,1.4-2.2,1.8s-1.6,0.8-2.6,1.2c-0.8,0.2-1.8,0.6-2.8,0.6c-0.8,0.2-1.8,0.2-2.8,0.2c-1.6,0-3.4-0.2-4.8-0.8
			c-1.4-0.6-2.8-1.4-3.8-2.6c-1-1-1.8-2.6-2.6-4.2c-0.6-1.6-0.8-3.6-0.8-5.6c0-1.6,0.2-3.2,0.8-4.6s1.2-2.8,2.4-3.8s2.4-1.8,3.8-2.6
			C208.1,278.5,209.7,278.3,211.3,278.3z M211.5,282.5c-1.6,0-3.2,0.4-4,1.4c-1,1-1.6,2.4-1.8,4.2h11.2c0-0.8,0-1.4-0.2-2.2
			s-0.6-1.2-1-1.6s-1-0.8-1.6-1.2C213.3,282.7,212.5,282.5,211.5,282.5z"/>
		<path class="st0" d="M241.5,283.5c-0.2,0.2-0.4,0.4-0.4,0.6c-0.2,0-0.4,0.2-0.6,0.2s-0.6,0-0.8-0.2s-0.6-0.4-1-0.6
			s-0.8-0.4-1.4-0.6c-0.6-0.2-1.2-0.2-1.8-0.2c-1.2,0-2.2,0.2-2.8,0.8s-1,1-1,1.8c0,0.6,0.2,1,0.4,1.2c0.4,0.4,0.8,0.6,1.2,0.8
			c0.6,0.2,1.2,0.4,1.8,0.6s1.4,0.4,2.2,0.6s1.4,0.6,2,0.8c0.6,0.4,1.2,0.8,1.8,1.2c0.6,0.4,1,1,1.2,1.8c0.4,0.6,0.4,1.4,0.4,2.6
			s-0.2,2.4-0.6,3.4c-0.4,1-1,1.8-1.8,2.6c-0.8,0.6-1.8,1.2-3.2,1.6c-1.2,0.4-2.6,0.6-4.2,0.6c-0.8,0-1.6,0-2.6-0.2
			c-0.8-0.2-1.6-0.4-2.4-0.6c-0.6-0.2-1.4-0.6-2-1s-1.2-0.8-1.6-1.2l1.2-2.4c0.2-0.2,0.4-0.4,0.6-0.6c0.2-0.2,0.6-0.2,0.8-0.2
			c0.4,0,0.6,0,1,0.2s0.6,0.4,1,0.6s0.8,0.4,1.4,0.6c0.6,0.2,1.2,0.2,2.4,0.2c0.6,0,1.2,0,1.8-0.2s0.8-0.4,1.2-0.6s0.6-0.6,0.6-1
			s0.2-0.6,0.2-1c0-0.6-0.2-1-0.4-1.4c-0.4-0.4-0.8-0.6-1.2-1s-1.2-0.4-1.8-0.6s-1.4-0.4-2.4-0.6c-0.8-0.2-1.4-0.6-2.4-0.8
			c-0.6-0.4-1.4-0.8-1.8-1.2c-0.6-0.4-1-1.2-1.2-1.8c-0.4-0.8-0.4-1.6-0.4-2.8s0.2-1.8,0.6-3c0.4-0.8,1-1.6,1.6-2.4
			c0.8-0.6,1.6-1.2,3-1.6c1.2-0.4,2.6-0.6,4-0.6c1.6,0,3.2,0.2,4.6,0.8c1.4,0.6,2.6,1.2,3.6,2.2L241.5,283.5z"/>
		<path class="st0" d="M255.1,271.5c0,0.4,0,1-0.2,1.4s-0.4,0.8-0.8,1.2c-0.4,0.4-0.8,0.6-1.2,0.8s-1,0.2-1.4,0.2s-1,0-1.4-0.2
			s-0.8-0.4-1.2-0.8s-0.6-0.6-0.8-1.2s-0.2-0.8-0.2-1.4s0-1,0.2-1.4s0.4-0.8,0.8-1.2c0.4-0.4,0.6-0.6,1.2-0.8
			c0.4-0.2,0.8-0.2,1.4-0.2c0.6,0,1,0,1.4,0.2s0.8,0.4,1.2,0.8s0.6,0.6,0.8,1.2C254.9,270.3,255.1,271.1,255.1,271.5z M254.1,278.5
			v24.6h-5.8v-24.6H254.1z"/>
		<path class="st0" d="M269.3,278.1c1,0,2.2,0.2,3,0.4c0.8,0.2,1.6,0.6,2.6,0.8h7.2v2.2c0,0.4,0,0.6-0.2,0.8c-0.2,0.2-0.4,0.4-1,0.4
			l-2.2,0.4c0.2,0.4,0.2,0.8,0.4,1.2c0,0.4,0.2,1,0.2,1.4c0,1.2-0.2,2.4-0.6,3.4s-1.2,1.8-2.2,2.6c-0.8,0.6-1.8,1.2-3,1.6
			s-2.6,0.6-3.8,0.6c-0.8,0-1.8,0-2.8-0.2c-0.8,0.4-1,1-1,1.4s0.2,0.8,0.6,1s1,0.4,1.8,0.4s1.6,0.2,2.6,0.2c0.8,0,1.8,0,3,0.2
			c1,0.2,1.8,0.2,3,0.4c0.8,0.2,1.6,0.4,2.6,1c0.8,0.4,1.2,1,1.8,1.6c0.4,0.8,0.6,1.6,0.6,3c0,1-0.2,2.2-0.8,3.2
			c-0.6,1-1.2,1.8-2.4,2.8c-1,0.8-2.4,1.4-3.8,1.8s-3.2,0.6-5,0.6s-3.6-0.2-4.8-0.6c-1.2-0.4-2.6-0.8-3.4-1.4s-1.6-1.2-2.2-2.2
			c-0.4-0.8-0.6-1.6-0.6-2.6s0.4-2.2,1-3s1.6-1.4,3-1.8c-0.6-0.4-1-0.8-1.4-1.2c-0.4-0.4-0.6-1.2-0.6-2.2c0-0.4,0-0.8,0.2-1
			c0.2-0.4,0.4-0.8,0.6-1.2c0.2-0.4,0.6-0.8,1-1c0.4-0.4,0.8-0.6,1.4-0.8c-1.2-0.6-2.4-1.4-3-2.8c-0.6-1-1-2.6-1-4
			c0-1.2,0.2-2.4,0.6-3.4s1.2-1.8,2.2-2.6c0.8-0.6,1.8-1.2,3.2-1.6C266.7,278.3,267.9,278.1,269.3,278.1z M275.7,304.1
			c0-0.4-0.2-0.8-0.4-1.2c-0.2-0.4-0.6-0.6-1.2-0.6c-0.4-0.2-1-0.2-1.6-0.4c-0.6,0-1.2-0.2-2.2-0.2s-1.4,0-2.4,0
			c-0.8,0-1.4,0-2.4-0.2c-0.6,0.4-1.2,0.8-1.6,1.2c-0.4,0.4-0.6,1-0.6,1.6c0,0.4,0.2,0.8,0.4,1.2c0.2,0.4,0.6,0.6,1,1s1,0.4,1.8,0.6
			s1.6,0.2,2.8,0.2s2.2,0,3-0.2s1.4-0.4,1.8-0.6s0.8-0.6,1-1C275.7,305.3,275.7,304.7,275.7,304.1z M269.3,290.3
			c0.6,0,1.4,0,1.8-0.2c0.6-0.2,1-0.4,1.2-0.8s0.6-0.8,0.8-1.2c0.2-0.4,0.2-1,0.2-1.6c0-1.2-0.4-2-1-3s-1.8-1-3.4-1
			c-1.4,0-2.6,0.4-3.4,1s-1,1.6-1,3c0,0.6,0,1,0.2,1.6c0.2,0.4,0.4,0.8,0.8,1.2c0.4,0.4,0.8,0.6,1.2,0.8
			C267.9,290.1,268.5,290.3,269.3,290.3z"/>
		<path class="st0" d="M285.5,303.1v-24.6h3.6c0.8,0,1.2,0.4,1.4,1l0.4,1.8c0.4-0.4,1-1,1.4-1.4c0.6-0.4,1-0.8,1.6-1
			s1.2-0.6,1.8-0.6s1.4-0.2,2.4-0.2c1.2,0,2.6,0.2,3.6,0.6s1.8,1,2.6,1.8s1.2,1.8,1.6,3c0.4,1,0.6,2.4,0.6,3.8v15.6h-5.8v-15.6
			c0-1.4-0.4-2.8-1-3.6c-0.6-0.8-1.6-1.2-3.2-1.2c-1,0-1.8,0.2-3,0.6c-0.8,0.4-1.6,1-2.6,1.8v17.8h-5.6v0.4H285.5z"/>
		<path class="st0" d="M112.7,332.3c1.4,0,3,0.2,4.2,0.8s2.6,1.2,3.4,2.2c0.8,0.8,1.6,2.2,2,3.6s0.8,3,0.8,4.6c0,0.4,0,0.8,0,1
			s-0.2,0.6-0.2,0.6c0,0.2-0.2,0.2-0.4,0.4c-0.2,0-0.4,0.2-0.6,0.2h-15.4c0.2,2.6,0.8,4.4,2,5.4c1.2,1.2,2.8,1.6,4.6,1.6
			c1,0,1.6-0.2,2.6-0.4c0.6-0.2,1.2-0.4,1.8-0.8c0.4-0.2,1-0.4,1.2-0.8c0.4-0.2,0.8-0.4,1-0.4s0.4,0,0.6,0.2c0.2,0,0.4,0.2,0.4,0.4
			l1.6,2.2c-0.6,0.8-1.4,1.4-2,1.8c-0.8,0.4-1.6,0.8-2.6,1.2c-0.8,0.2-1.8,0.6-2.8,0.6c-0.8,0.2-1.8,0.2-2.8,0.2
			c-1.6,0-3.4-0.2-4.8-0.8c-1.4-0.6-2.8-1.4-3.8-2.6c-1-1-1.8-2.6-2.6-4.2c-0.6-1.6-0.8-3.6-0.8-5.6c0-1.6,0.2-3.2,0.8-4.6
			c0.6-1.4,1.2-2.8,2.4-3.8c1-1,2.4-1.8,3.8-2.6C109.1,332.7,110.7,332.3,112.7,332.3z M112.7,336.5c-1.6,0-3.2,0.4-4,1.4
			c-1,1-1.6,2.4-1.8,4.2h11.2c0-0.8,0-1.4-0.2-2s-0.6-1.2-1-1.6s-1-0.8-1.6-1.2C114.3,336.7,113.5,336.5,112.7,336.5z"/>
		<path class="st0" d="M132.5,344.7l-8-12h5.6c0.4,0,0.8,0,1,0.2s0.4,0.2,0.6,0.6l5,8.2c0-0.2,0.2-0.6,0.2-0.8
			c0.2-0.2,0.2-0.6,0.4-0.8l4.2-6.6c0.2-0.2,0.4-0.6,0.6-0.6c0.2,0,0.4-0.2,0.8-0.2h5.4l-8.2,11.6l8.4,13h-5.6c-0.4,0-0.8-0.2-1-0.4
			c-0.2-0.2-0.4-0.4-0.6-0.8l-5.2-8.6c-0.2,0.6-0.4,1-0.6,1.4l-4.6,7.2c-0.2,0.2-0.4,0.4-0.6,0.8c-0.2,0.2-0.6,0.4-1,0.4h-5.2
			L132.5,344.7z"/>
		<path class="st0" d="M152.3,365.3v-32.6h3.6c0.4,0,0.6,0,1,0.2c0.2,0.2,0.4,0.4,0.6,0.8l0.4,2.4c1-1,2-2.2,3.4-2.8s2.8-1,4.4-1
			c1.2,0,2.6,0.2,3.6,0.8c1,0.6,2.2,1.4,3,2.6c0.8,1,1.4,2.4,1.8,4c0.4,1.4,0.6,3.4,0.6,5.2s-0.2,3.6-0.8,5c-0.4,1.4-1.2,3-2.2,4
			c-0.8,1-2,2-3.4,2.8c-1.2,0.6-2.8,1-4.4,1c-1.4,0-2.6-0.2-3.6-0.6s-1.8-1-2.6-1.6v10h-5.4V365.3z M163.9,336.9
			c-1.2,0-2.4,0.2-3.2,0.8c-0.8,0.4-1.6,1.2-2.6,2.2v11c0.6,0.8,1.4,1.4,2.2,1.6c0.8,0.4,1.6,0.4,2.6,0.4s1.6-0.2,2.6-0.4
			c0.6-0.4,1.2-0.8,1.8-1.4c0.4-0.6,0.8-1.4,1.2-2.6c0.2-1,0.4-2.4,0.4-3.8s-0.2-2.8-0.4-3.6c-0.2-0.8-0.6-1.8-1-2.6
			c-0.4-0.6-1-1-1.4-1.2C165.3,337.1,164.7,336.9,163.9,336.9z"/>
		<path class="st0" d="M189.5,332.3c1.4,0,3,0.2,4.2,0.8s2.6,1.2,3.4,2.2c0.8,0.8,1.6,2.2,2,3.6s0.8,3,0.8,4.6c0,0.4,0,0.8,0,1
			s-0.2,0.6-0.2,0.6c0,0.2-0.2,0.2-0.4,0.4c-0.2,0-0.4,0.2-0.6,0.2h-15.2c0.2,2.6,0.8,4.4,2,5.4c1.2,1.2,2.8,1.6,4.6,1.6
			c1,0,1.6-0.2,2.6-0.4c0.6-0.2,1.2-0.4,1.8-0.8c0.4-0.2,1-0.4,1.2-0.8c0.4-0.2,0.8-0.4,1-0.4s0.4,0,0.6,0.2c0.2,0,0.4,0.2,0.4,0.4
			l1.6,2.2c-0.6,0.8-1.4,1.4-2,1.8c-0.8,0.4-1.6,0.8-2.6,1.2c-0.8,0.2-1.8,0.6-2.8,0.6c-0.8,0.2-1.8,0.2-2.8,0.2
			c-1.6,0-3.4-0.2-4.8-0.8c-1.4-0.6-2.8-1.4-3.8-2.6s-1.8-2.6-2.6-4.2c-0.6-1.6-0.8-3.6-0.8-5.6c0-1.6,0.2-3.2,0.8-4.6
			s1.2-2.8,2.4-3.8c1-1,2.4-1.8,3.8-2.6C186.1,332.7,187.9,332.3,189.5,332.3z M189.7,336.5c-1.6,0-3.2,0.4-4,1.4
			c-1,1-1.6,2.4-1.8,4.2h11.2c0-0.8,0-1.4-0.2-2s-0.6-1.2-1-1.6s-1-0.8-1.6-1.2C191.5,336.7,190.5,336.5,189.7,336.5z"/>
		<path class="st0" d="M205.1,357.3v-24.6h3.6c0.6,0,1,0.2,1.2,0.4c0.2,0.2,0.4,0.6,0.4,1l0.4,3c0.8-1.4,1.8-2.8,3.2-3.6
			c1.2-0.8,2.6-1.2,4-1.2c1.2,0,2.4,0.2,3,0.8l-0.8,4.4c0,0.2-0.2,0.4-0.2,0.6c-0.2,0.2-0.4,0.2-0.6,0.2c-0.2,0-0.6,0-1-0.2
			s-1-0.2-1.6-0.2c-1.2,0-2.4,0.4-3.2,1s-1.6,1.6-2.4,3v15.4L205.1,357.3L205.1,357.3z"/>
		<path class="st0" d="M232.5,357.7c-2,0-3.8-0.6-4.8-1.8s-1.6-3-1.6-5v-13.6h-2.6c-0.4,0-0.6,0-0.8-0.2s-0.4-0.4-0.4-0.8v-2.4
			l4-0.6l1.2-6.8c0-0.4,0.2-0.6,0.4-0.8c0.2-0.2,0.4-0.2,0.8-0.2h3.2v7.8h6.6v4.2h-6.6v13.2c0,0.8,0.2,1.2,0.6,1.8
			c0.4,0.4,0.8,0.6,1.4,0.6c0.4,0,0.6,0,0.8-0.2c0.2,0,0.4-0.2,0.6-0.2s0.4-0.2,0.4-0.2c0.2,0,0.2-0.2,0.4-0.2s0.4,0,0.4,0.2
			c0.2,0,0.2,0.2,0.4,0.4l1.6,3c-0.8,0.6-1.8,1.2-3,1.6C235.1,357.5,233.9,357.7,232.5,357.7z"/>
		<path class="st0" d="M257.7,337.5c-0.2,0.2-0.4,0.4-0.4,0.6c-0.2,0-0.4,0.2-0.6,0.2s-0.6,0-0.8-0.2s-0.6-0.4-1-0.6
			s-0.8-0.4-1.4-0.6c-0.6-0.2-1.2-0.2-1.8-0.2c-1.2,0-2.2,0.2-2.8,0.8s-1,1-1,1.8c0,0.6,0.2,1,0.4,1.2c0.4,0.4,0.8,0.6,1.2,0.8
			c0.6,0.2,1.2,0.4,1.8,0.6s1.4,0.4,2.2,0.6s1.4,0.6,2.2,0.8c0.6,0.4,1.2,0.8,1.8,1.2c0.6,0.4,1,1,1.2,1.8c0.4,0.6,0.4,1.4,0.4,2.6
			s-0.2,2.4-0.6,3.4s-1,1.8-1.8,2.6s-1.8,1.2-3.2,1.6s-2.6,0.6-4.2,0.6c-0.8,0-1.6,0-2.6-0.2c-0.8-0.2-1.6-0.4-2.4-0.6
			c-0.6-0.2-1.4-0.6-2-1s-1.2-0.8-1.6-1.2l1.2-2.4c0.2-0.2,0.4-0.4,0.6-0.6c0.2-0.2,0.6-0.2,0.8-0.2c0.4,0,0.6,0,1,0.2
			s0.6,0.4,1,0.6s0.8,0.4,1.4,0.6c0.6,0.2,1.2,0.2,2.4,0.2c0.6,0,1.2,0,1.8-0.2s0.8-0.4,1.2-0.6s0.6-0.6,0.6-1s0.2-0.6,0.2-1
			c0-0.6-0.2-1-0.4-1.4c-0.4-0.4-0.8-0.6-1.2-1s-1.2-0.4-1.8-0.6s-1.4-0.4-2.4-0.6c-0.8-0.2-1.4-0.6-2.4-0.8
			c-0.6-0.4-1.4-0.8-1.8-1.2c-0.6-0.4-1-1.2-1.2-1.8c-0.4-0.8-0.4-1.6-0.4-2.8c0-1,0.2-1.8,0.6-3c0.4-0.8,1-1.6,1.6-2.4
			c0.8-0.6,1.6-1.2,3-1.6c1.2-0.4,2.6-0.6,4-0.6c1.6,0,3.2,0.2,4.6,0.8c1.4,0.6,2.6,1.2,3.6,2.2L257.7,337.5z"/>
	</g>
	<g>
		<g>
			<path class="st1" d="M170.5,129.5c-0.2,0-0.4,0-0.4,0c-1.4,0-3-0.6-4-1.8l-18.8-20c-1.4-1.4-1.4-3.8,0.2-5.2
				c1.4-1.4,3.8-1.4,5.2,0.2l18,19l40.4-38c1.4-1.4,3.8-1.4,5.2,0.2c1.4,1.4,1.4,3.8-0.2,5.2l-41.4,38.8c0,0,0,0-0.2,0.2
				C173.5,129.1,172.1,129.5,170.5,129.5z"/>
		</g>
		<g>
			<path class="st3" d="M118.7,180.9c-4.6-2.8-7.6-7.8-9.2-14.6c-1-4.4-2.2-7-4-8.4c-4.4,6.2-13.6,20-19,27.8
				c-1.8,2.6-0.4,4,2.8,3.6c5.6-0.4,11.2-1.2,17.4-1.6c1.8,5.4,3.6,10.8,5.6,16.2c0.4,1,1.4,2.4,2.2,2.4c0.8,0.2,2.2-1,2.8-1.8
				c4.8-7,14.2-20.8,14.2-20.8l-0.2-0.4C126.7,184.1,122.5,183.3,118.7,180.9"/>
		</g>
		<g>
			<path class="st3" d="M254.7,157.7c-2.4,1.2-3.4,3-3.8,7.4c-0.6,7-3.2,12.2-7.8,15.6c-3.8,2.8-8.4,4-14.2,3.4
				c1.6,2.4,9.6,14.2,14,20.2c0.6,0.8,2,2,2.8,1.8s1.8-1.4,2.2-2.4c2-5.4,3.8-10.6,5.6-16.2c6.2,0.6,11.8,1.2,17.4,1.6
				c3.2,0.4,4.6-1,2.8-3.6C268.5,177.9,258.7,163.7,254.7,157.7"/>
		</g>
		<g>
			<path class="st0" d="M197.3,191.1c-4.4,0-9.2-1.6-14.2-5.2c-2.4-1.6-3.4-1.6-6,0c-4.2,2.6-10.4,6-17.8,4.4
				c-7.4-1.6-11.4-7.4-14-11.4c-1.6-3-2.4-3-4.6-2.4c-6.4,1.4-12.2,0.8-16.4-1.8c-4.6-2.8-7.6-7.4-9-14.2c-1.4-6.4-3-7.4-6.6-8
				c-5.4-1.2-10-4.4-12.6-9.2c-2.8-5.2-2.8-11.2-0.4-17c1.6-3.8,1.4-5-1.6-7.6c-6.4-5.2-7.6-10.8-7.6-14.6c0-5.6,2.6-11,8-15.4
				c2.8-2.4,3-3.4,1.4-6.8c-3.4-7.8-1.8-13.6,0-17s5.8-8,14.2-10.2c3.4-0.8,3.8-1.4,4-4.6c0.4-8.4,4.2-13.2,7.4-15.6
				c3.2-2.4,9-5,17.8-3.4c3.2,0.4,4,0.2,5.6-2.6c3.4-6.2,8.2-9.8,13.8-11c6-1,11.8,0.4,17.6,4.8c2.6,1.8,3.8,1.8,6.6,0
				c4.2-2.6,10.2-5.8,17.4-4.4c7.4,1.6,11.4,7.4,14,11.6c1.4,2.4,2,2.8,4.8,2.2c8.8-2,14.4,0.4,17.8,3c3.4,2.4,7.4,7.2,7.8,16
				c0.2,3.4,0.8,4,3.6,4.6c9.2,2,15.2,8.4,16.6,18l0.2,0.6c0,0.4,0,0.6,0,1.2l-0.2,0.6c0,0.2,0,0.4,0,0.4v0.2
				c-0.2,1-0.4,2.6-1.2,4.4c-2.2,4.6-1.2,6.4,2.8,9.6c4.4,3.6,7,8.4,7,13.6c0,5.6-2.6,11-7.8,15.2c-3.4,2.6-3.4,3.8-1.8,7.4
				c2.6,5.6,2.6,11.6,0.2,16.4c-2.4,5-7.4,8.6-13.8,10.2c-3.4,0.8-4.4,1.6-4.8,6.2c-0.6,6.8-3.2,12-7.6,15.2c-4.4,3.4-10.2,4.4-17,3
				c-3.4-0.6-4.4-0.2-5.8,2.4c-3.6,6.4-8.2,9.8-13.8,11C199.7,190.9,198.5,191.1,197.3,191.1z M180.3,177.3c2.4,0,4.6,0.8,7.2,2.6
				c4.6,3.2,8.4,4.4,12,3.6c3.4-0.6,6.4-3.2,9-7.4c3.2-5.4,7.2-7,13.4-5.8c4.8,0.8,8.6,0.4,11.4-1.8c2.6-2,4.4-5.4,4.6-9.8
				c0.6-7.4,3.6-11,10.4-12.6c4.2-1,7.4-3.4,9-6.4c1.4-3,1.4-6.4-0.2-10.2c-3.2-6.8-2-11.4,4-16.2c3.4-2.6,5-6,5-9.2
				c0-3-1.4-5.8-4.2-8c-6.8-5.4-8.2-11.2-4.8-18.4c0.4-0.6,0.4-1.4,0.4-2l0,0c0-0.4,0-0.4,0.2-0.8v-0.2v-0.2
				c-0.8-6.4-4.4-10.2-10.8-11.6c-6.4-1.4-9.2-4.8-9.6-11.4c-0.2-5.8-2.6-8.8-4.6-10.2s-5.8-3-11.8-1.6s-9.6-0.4-12.8-5.6
				c-1.8-3.2-4.8-7.4-9.2-8.4s-8.8,1.4-11.8,3.4c-5.4,3.4-9.8,3.4-14.8-0.4c-4.2-3-8.2-4.2-11.6-3.4c-3.4,0.6-6.4,3.2-8.8,7.4
				c-3.2,5.4-7.2,7.4-13.2,6.2c-6.4-1.2-10,0.4-12,2c-2,1.4-4.4,4.4-4.4,10c-0.4,6.6-3.2,10-9.6,11.6c-5.8,1.4-8.4,4.2-9.4,6.4
				c-1.2,2-2,5.6,0.4,10.8c2.6,6.4,1.6,11-3.6,15.2c-2.4,2-5.4,5.4-5.4,9.8c0,2.4,0.8,5.6,5,9c5.6,4.6,6.8,9.4,3.8,16.2
				c-1.6,3.6-1.4,7.4,0.2,10.4c1.4,2.8,4.2,4.6,7.6,5.4c8.4,1.6,10.8,6.4,12.2,13.8c1,4.6,2.8,7.6,5.6,9.4c2.8,1.6,6.4,2,11,1
				c5.8-1.4,9.4,0.4,12.6,5.8c1.8,3,4.6,7,9.2,8.2c4.4,1,8.8-1.4,12.2-3.4C175.5,178.1,177.9,177.3,180.3,177.3z"/>
		</g>
	</g>
</g>
</svg>
