<svg width="106px" height="112px"  id="Layer_1" data-name="Layer 1" xmlns="http://www.w3.org/2000/svg" viewBox="0 0 360 378"><defs><style>.cls-1{fill:#f70114;}.cls-2{fill:#646564;}</style></defs><path class="cls-1" d="M182.26,174.7h0a5.9,5.9,0,0,1-4.2-2c-4.6-4.6-9.2-9.2-13.6-13.8-5.4-5.4-11.2-11.2-16.6-16.8-3.4-3.4-5.4-8-5.2-12,.2-9.6,4-15.8,11.8-19.2,7.4-3.4,14.8-2,21,3.6q3.3,3,6.6,6.6l.2.2.2-.2c2-2.2,4.2-4.4,6.2-6.4h0a19.31,19.31,0,0,1,27.4,0,19.7,19.7,0,0,1,5.8,13.8,19.34,19.34,0,0,1-5.4,13.8c-6.2,6.2-12.4,12.6-18.6,18.6l-11.6,11.6A4.71,4.71,0,0,1,182.26,174.7Zm.8-6.6Zm-20.8-52a12.32,12.32,0,0,0-5.2,1.2c-5.2,2.4-7.6,6.2-7.6,13.2v.2c-.2,1.6.8,4.4,3.2,7l16.6,16.6,13,13,11-11c6-6,12.4-12.4,18.4-18.6a11.6,11.6,0,0,0,3.4-9,12.72,12.72,0,0,0-3.8-9,12.44,12.44,0,0,0-17.8,0h0l-6,6a6.56,6.56,0,0,1-5.2,2.8h0c-1.8,0-3.6-.8-5.4-2.8-2.2-2.4-4.2-4.4-6.2-6.2A12.9,12.9,0,0,0,162.26,116.1Zm-16.4,14.2Zm36-8.6Z"/><path class="cls-2" d="M238.66,214.3h-116c-8.4,0-15-7.4-15-16.4v-63H97.26a15.26,15.26,0,0,1-13.8-8.6c-1.8-4.6-.8-9.2,3-13l83.4-83.6a15.11,15.11,0,0,1,10.8-4.4,15.82,15.82,0,0,1,10.8,4.4c9.4,9.4,19.2,18.8,28.6,28,8.6,8.4,17.6,17,26.2,25.6,7.8,7.8,17,17,26.2,27,5,5.6,7,12.6,4.8,17.8-1.2,2.6-4.2,6.8-12.8,6.8h-10.4v63C253.86,207.1,247.06,214.3,238.66,214.3Zm-58-182.2a8,8,0,0,0-5.8,2.4l-83.6,83.6c-1.8,1.8-2.4,3.8-1.6,5.6,1,2.6,4.2,4.4,7.4,4.4h12.6c2.6,0,4.6,2.6,4.6,6v63.8c0,5.4,3.8,9.6,8.2,9.6h116.2c4.6,0,8.2-4.4,8.2-9.6V134.1c0-3.2,2-6,4.6-6h12.6c2.4,0,5.6-.4,6.6-2.8,1.2-2.6-.4-7.2-3.4-10.4-9-9.8-18.2-19-26-26.6-8.6-8.6-17.6-17.2-26.2-25.6-9.4-9.2-19.2-18.6-28.8-28.2A7.26,7.26,0,0,0,180.66,32.1Z"/><path class="cls-2" d="M87.86,345.5l-.6.6c-.2.2-.4.2-.8.2s-.6,0-.8-.2a4.37,4.37,0,0,0-1-.6,9.75,9.75,0,0,0-1.4-.6,6.17,6.17,0,0,0-2-.2,6.39,6.39,0,0,0-2.8.6,7.83,7.83,0,0,0-2,1.6,6.2,6.2,0,0,0-1.2,2.6,17.61,17.61,0,0,0-.4,3.4,15.86,15.86,0,0,0,.4,3.4,6.2,6.2,0,0,0,1.2,2.6,7.83,7.83,0,0,0,2,1.6,5.54,5.54,0,0,0,2.6.6,5.35,5.35,0,0,0,2.2-.4,3.22,3.22,0,0,0,1.4-.8,4.36,4.36,0,0,0,1-.8,1.53,1.53,0,0,1,1-.4,1.1,1.1,0,0,1,1,.6l1.6,2.2a10.48,10.48,0,0,1-2.2,2,6.76,6.76,0,0,1-2.4,1.2,9.92,9.92,0,0,1-2.6.6,11.4,11.4,0,0,1-2.6.2,9.28,9.28,0,0,1-4.2-.8,11.35,11.35,0,0,1-3.6-2.4,11.23,11.23,0,0,1-2.4-4,15.33,15.33,0,0,1-.8-5.4,13.81,13.81,0,0,1,.8-5,12.88,12.88,0,0,1,2.2-4,8.62,8.62,0,0,1,3.8-2.6,13.38,13.38,0,0,1,5.2-1,12.1,12.1,0,0,1,4.8.8,11.73,11.73,0,0,1,3.8,2.6Z"/><path class="cls-2" d="M98.66,340.3v15.6a5.3,5.3,0,0,0,1,3.4,3.94,3.94,0,0,0,3.2,1.2,6.39,6.39,0,0,0,2.8-.6,10.17,10.17,0,0,0,2.6-1.8V340.3h6v24.6h-3.6a1.78,1.78,0,0,1-1.6-1l-.4-2a10,10,0,0,1-1.6,1.4,8.11,8.11,0,0,1-1.8,1,5.87,5.87,0,0,1-2,.6,8.2,8.2,0,0,1-2.2.2,9.69,9.69,0,0,1-3.6-.6,6.1,6.1,0,0,1-2.6-2,7.21,7.21,0,0,1-1.6-3,11.64,11.64,0,0,1-.6-3.8V340.1l6,.2Z"/><path class="cls-2" d="M135.06,345.1l-.6.6a.73.73,0,0,1-.6.2,2.17,2.17,0,0,1-1-.2l-1.2-.6c-.4-.2-1-.4-1.4-.6a6.17,6.17,0,0,0-2-.2,4.23,4.23,0,0,0-2.8.8,2.46,2.46,0,0,0-1,2,1.82,1.82,0,0,0,.6,1.4,8.47,8.47,0,0,0,1.4,1,20.75,20.75,0,0,0,2,.8,9.75,9.75,0,0,1,2.2.8c.8.2,1.4.6,2.2.8a6.66,6.66,0,0,1,2,1.2,11,11,0,0,1,1.4,1.8,5,5,0,0,1,.6,2.6,8.29,8.29,0,0,1-.6,3.2,7.61,7.61,0,0,1-1.8,2.6,7.21,7.21,0,0,1-3,1.6,13.3,13.3,0,0,1-4.2.6,9.74,9.74,0,0,1-2.4-.2l-2.4-.6a6.26,6.26,0,0,1-2-1,11.09,11.09,0,0,1-1.6-1.2l1.4-2.2.6-.6a1.5,1.5,0,0,1,1-.2,1.53,1.53,0,0,1,1,.4l1.2.6a13.78,13.78,0,0,0,1.6.6,7.19,7.19,0,0,0,2.2.4,4.44,4.44,0,0,0,1.8-.2,3.26,3.26,0,0,0,1.2-.6,2,2,0,0,0,.8-1,2.54,2.54,0,0,0,.2-1.2,1.82,1.82,0,0,0-.6-1.4,8.47,8.47,0,0,0-1.4-1,20.75,20.75,0,0,0-2-.8,9.75,9.75,0,0,1-2.2-.8c-.8-.2-1.6-.6-2.2-.8a7,7,0,0,1-3.4-3.4,5.81,5.81,0,0,1-.6-2.8,6.39,6.39,0,0,1,.6-2.8,5.46,5.46,0,0,1,1.8-2.4,12.75,12.75,0,0,1,2.8-1.6,12,12,0,0,1,4-.6,11.73,11.73,0,0,1,4.6.8,8.36,8.36,0,0,1,3.4,2.2Z"/><path class="cls-2" d="M149.46,365.1a6.24,6.24,0,0,1-6.8-6.8V344.5h-2.4a1,1,0,0,1-.8-.4,1.53,1.53,0,0,1-.4-1v-2.4l4-.6,1.2-6.6a1,1,0,0,1,.4-.8,1.2,1.2,0,0,1,.8-.2h3v7.8h6.4v4.2h-6.4v13.4a2.44,2.44,0,0,0,.6,1.8,2,2,0,0,0,1.6.6,1.8,1.8,0,0,0,1-.2c.2,0,.4-.2.6-.2a.7.7,0,0,0,.4-.2c.2,0,.2-.2.4-.2s.4,0,.4.2c.2,0,.2.2.4.4l1.8,2.8a7.21,7.21,0,0,1-3,1.6A7.62,7.62,0,0,1,149.46,365.1Z"/><path class="cls-2" d="M170.46,339.9a13.81,13.81,0,0,1,5,.8,9.94,9.94,0,0,1,3.8,2.6,11.23,11.23,0,0,1,2.4,4,14.91,14.91,0,0,1,.8,5.2,13.54,13.54,0,0,1-.8,5.2,13.31,13.31,0,0,1-2.4,4,12.81,12.81,0,0,1-3.8,2.6,16,16,0,0,1-10,0,9.94,9.94,0,0,1-3.8-2.6,13.31,13.31,0,0,1-2.4-4,14.91,14.91,0,0,1-.8-5.2,14.21,14.21,0,0,1,.8-5.2,13.31,13.31,0,0,1,2.4-4,12.81,12.81,0,0,1,3.8-2.6A13.13,13.13,0,0,1,170.46,339.9Zm0,20.8a5.29,5.29,0,0,0,4.6-2c1-1.4,1.4-3.4,1.4-6s-.4-4.6-1.4-6-2.4-2-4.6-2a5.29,5.29,0,0,0-4.6,2c-1,1.4-1.4,3.4-1.4,6s.4,4.6,1.4,6A5.85,5.85,0,0,0,170.46,360.7Z"/><path class="cls-2" d="M187.26,364.7V340.1h3.6a1.78,1.78,0,0,1,1.6,1l.4,1.8a9.24,9.24,0,0,1,1.4-1.4,4.35,4.35,0,0,1,1.6-1,6.36,6.36,0,0,1,1.8-.6,6.17,6.17,0,0,1,2-.2,5.77,5.77,0,0,1,3.8,1.2,6.74,6.74,0,0,1,2.2,3.4,5.1,5.1,0,0,1,1.4-2,11,11,0,0,1,1.8-1.4,7.16,7.16,0,0,1,2.2-.8,12.23,12.23,0,0,1,6,.4,6.09,6.09,0,0,1,2.6,1.8,7.21,7.21,0,0,1,1.6,3,12,12,0,0,1,.6,4v15.6h-6V349.3a5.94,5.94,0,0,0-1-3.6,3.51,3.51,0,0,0-3-1.2,3.77,3.77,0,0,0-1.6.4,8.7,8.7,0,0,0-1.4.8,8.47,8.47,0,0,0-1,1.4,5.92,5.92,0,0,0-.4,2v15.6h-6V349.1a5.94,5.94,0,0,0-1-3.6,3.51,3.51,0,0,0-3-1.2,5.33,5.33,0,0,0-2.4.6,5.67,5.67,0,0,0-2,1.8v18Z"/><path class="cls-2" d="M237.66,339.9a9.28,9.28,0,0,1,4.2.8,9,9,0,0,1,3.4,2.2,12.38,12.38,0,0,1,2.2,3.4,12.1,12.1,0,0,1,.8,4.8v1.2a2,2,0,0,1-.2.6l-.4.4c-.2,0-.4.2-.6.2h-15.2c.2,2.6.8,4.4,2,5.6a6.34,6.34,0,0,0,4.6,1.8,7.46,7.46,0,0,0,2.4-.4,7.1,7.1,0,0,0,1.8-.8,8.7,8.7,0,0,0,1.4-.8,2.84,2.84,0,0,1,1.2-.4.73.73,0,0,1,.6.2.43.43,0,0,1,.4.4l1.8,2.2a10.48,10.48,0,0,1-2.2,2,6.2,6.2,0,0,1-2.6,1.2,14,14,0,0,1-2.8.6,12.3,12.3,0,0,1-2.6.2,12.75,12.75,0,0,1-4.8-.8,9.94,9.94,0,0,1-3.8-2.6,12.5,12.5,0,0,1-2.6-4.2,16.42,16.42,0,0,1-1-5.6,13.44,13.44,0,0,1,.8-4.8,12.3,12.3,0,0,1,2.4-3.8,10.67,10.67,0,0,1,3.8-2.6A10.19,10.19,0,0,1,237.66,339.9Zm0,4.2a5.16,5.16,0,0,0-4,1.4,6.79,6.79,0,0,0-1.8,4.2h11.2a8.51,8.51,0,0,0-.4-2.2,8.11,8.11,0,0,0-1-1.8,3.11,3.11,0,0,0-1.6-1.2A7.46,7.46,0,0,0,237.66,344.1Z"/><path class="cls-2" d="M253.06,364.7V340.1h3.4a1.41,1.41,0,0,1,1.6,1.6l.4,3a11.05,11.05,0,0,1,3-3.6,7.44,7.44,0,0,1,4-1.4,4.82,4.82,0,0,1,3,.8l-.8,4.4c0,.2-.2.4-.4.6a.73.73,0,0,1-.6.2,2.17,2.17,0,0,1-1-.2,3.9,3.9,0,0,0-1.6-.2,6,6,0,0,0-3.2,1,7.31,7.31,0,0,0-2.2,3v15.2l-5.6.2Z"/><path class="cls-2" d="M287.26,345.1l-.6.6a.73.73,0,0,1-.6.2,2.17,2.17,0,0,1-1-.2l-1.2-.6c-.4-.2-1-.4-1.4-.6a6.17,6.17,0,0,0-2-.2,4.23,4.23,0,0,0-2.8.8,2.46,2.46,0,0,0-1,2,1.82,1.82,0,0,0,.6,1.4,8.47,8.47,0,0,0,1.4,1,20.75,20.75,0,0,0,2,.8,9.75,9.75,0,0,1,2.2.8c.8.2,1.4.6,2.2.8a17.59,17.59,0,0,1,2,1.2,11,11,0,0,1,1.4,1.8,5,5,0,0,1,.6,2.6,8.29,8.29,0,0,1-.6,3.2,7.61,7.61,0,0,1-1.8,2.6,7.21,7.21,0,0,1-3,1.6,13.3,13.3,0,0,1-4.2.6,9.74,9.74,0,0,1-2.4-.2l-2.4-.6a6.26,6.26,0,0,1-2-1,11.09,11.09,0,0,1-1.6-1.2l1.4-2.2.6-.6a1.5,1.5,0,0,1,1-.2,1.53,1.53,0,0,1,1,.4l1.2.6a13.78,13.78,0,0,0,1.6.6,7.19,7.19,0,0,0,2.2.4,4.44,4.44,0,0,0,1.8-.2,3.26,3.26,0,0,0,1.2-.6,2,2,0,0,0,.8-1,2.54,2.54,0,0,0,.2-1.2,1.82,1.82,0,0,0-.6-1.4,8.47,8.47,0,0,0-1.4-1,20.75,20.75,0,0,0-2-.8,9.75,9.75,0,0,1-2.2-.8c-.8-.2-1.6-.6-2.2-.8a7,7,0,0,1-3.4-3.4,5.81,5.81,0,0,1-.6-2.8,6.39,6.39,0,0,1,.6-2.8,5.46,5.46,0,0,1,1.8-2.4,12.75,12.75,0,0,1,2.8-1.6,12,12,0,0,1,4-.6,11.73,11.73,0,0,1,4.6.8,8.36,8.36,0,0,1,3.4,2.2Z"/><path class="cls-2" d="M204.58,310.7V275.1h6v13.6a11.43,11.43,0,0,1,3.2-2.2,8.42,8.42,0,0,1,4-.8,9.69,9.69,0,0,1,3.6.6,5.12,5.12,0,0,1,2.6,2,10.6,10.6,0,0,1,1.6,3,11.64,11.64,0,0,1,.6,3.8v15.6h-6V295.1a5.72,5.72,0,0,0-1-3.4,3.94,3.94,0,0,0-3.2-1.2,6.39,6.39,0,0,0-2.8.6,10.17,10.17,0,0,0-2.6,1.8v17.8Z"/><path class="cls-2" d="M251,310.7h-2.6a3,3,0,0,1-1.4-.2,2,2,0,0,1-.8-1l-.6-1.8a11,11,0,0,1-1.8,1.4,8.11,8.11,0,0,1-1.8,1,7.62,7.62,0,0,1-2,.6,9.74,9.74,0,0,1-2.4.2,11.8,11.8,0,0,1-2.8-.4,4.77,4.77,0,0,1-2.2-1.2,4.57,4.57,0,0,1-1.4-2,6.68,6.68,0,0,1-.6-3,5,5,0,0,1,.8-2.8,4.67,4.67,0,0,1,2.4-2.4,12.27,12.27,0,0,1,4.6-1.8,32.15,32.15,0,0,1,7-.8v-1.4a5.94,5.94,0,0,0-1-3.6,3.77,3.77,0,0,0-3-1.2,7.46,7.46,0,0,0-2.4.4,4,4,0,0,0-1.6.8c-.4.2-1,.6-1.4.8a2.89,2.89,0,0,1-1.4.4,1.53,1.53,0,0,1-1-.4c-.2-.2-.6-.4-.6-.8l-1-1.8a14.36,14.36,0,0,1,10.2-3.8,7.61,7.61,0,0,1,3.8.8,7.17,7.17,0,0,1,2.8,2,7.53,7.53,0,0,1,1.8,3,11.64,11.64,0,0,1,.6,3.8l-.2,15.2Zm-11.4-3.6a3.9,3.9,0,0,0,1.6-.2,12.75,12.75,0,0,0,1.4-.4,11.47,11.47,0,0,0,1.4-.8l1.2-1.2v-4.2a25.47,25.47,0,0,0-4.4.4,9.34,9.34,0,0,0-2.8.8,4.34,4.34,0,0,0-1.4,1.2,3.71,3.71,0,0,0-.4,1.4,2.58,2.58,0,0,0,1,2.2A3.19,3.19,0,0,0,239.58,307.1Z"/><path class="cls-2" d="M256.78,318.9V286.3h3.6a1.5,1.5,0,0,1,1,.2,2.76,2.76,0,0,1,.6.8l.4,2.2a14.91,14.91,0,0,1,3.4-2.8,8.26,8.26,0,0,1,4.6-1,6.85,6.85,0,0,1,3.6.8,8.14,8.14,0,0,1,2.8,2.4,10.57,10.57,0,0,1,1.8,4,22.31,22.31,0,0,1,.6,5.4,13.13,13.13,0,0,1-.8,5,10.73,10.73,0,0,1-5.6,6.6,10.9,10.9,0,0,1-4.4,1,9.69,9.69,0,0,1-3.6-.6,7.61,7.61,0,0,1-2.6-1.8v10l-5.4.4Zm11.6-28.4a5.87,5.87,0,0,0-3.2.8,12,12,0,0,0-2.4,2.2v11a6.25,6.25,0,0,0,2.2,1.8,5.49,5.49,0,0,0,2.6.4,4.75,4.75,0,0,0,2.4-.6,3.53,3.53,0,0,0,1.8-1.6,7.85,7.85,0,0,0,1.2-2.6,16.4,16.4,0,0,0,0-7.2,6.67,6.67,0,0,0-1-2.4,5.39,5.39,0,0,0-1.6-1.4A3.29,3.29,0,0,0,268.38,290.5Z"/><path class="cls-2" d="M284,318.9V286.3h3.6a1.5,1.5,0,0,1,1,.2,2.76,2.76,0,0,1,.6.8l.4,2.2a14.91,14.91,0,0,1,3.4-2.8,8.26,8.26,0,0,1,4.6-1,6.85,6.85,0,0,1,3.6.8,8.14,8.14,0,0,1,2.8,2.4,10.57,10.57,0,0,1,1.8,4,22.31,22.31,0,0,1,.6,5.4,13.13,13.13,0,0,1-.8,5,10.73,10.73,0,0,1-5.6,6.6,10.9,10.9,0,0,1-4.4,1,9.69,9.69,0,0,1-3.6-.6,7.61,7.61,0,0,1-2.6-1.8v10l-5.4.4Zm11.4-28.4a5.87,5.87,0,0,0-3.2.8,12,12,0,0,0-2.4,2.2v11a6.25,6.25,0,0,0,2.2,1.8,5.49,5.49,0,0,0,2.6.4,4.75,4.75,0,0,0,2.4-.6,3.53,3.53,0,0,0,1.8-1.6,7.85,7.85,0,0,0,1.2-2.6,16.4,16.4,0,0,0,0-7.2,6.67,6.67,0,0,0-1-2.4,5.39,5.39,0,0,0-1.6-1.4A3.29,3.29,0,0,0,295.38,290.5Z"/><path class="cls-2" d="M318.78,317.5a4.37,4.37,0,0,1-.6,1,2.14,2.14,0,0,1-1.2.4h-4.4l4.6-9.8-10-22.8h5.2a1.53,1.53,0,0,1,1,.4,2.76,2.76,0,0,1,.6.8l5.2,12.8a2.84,2.84,0,0,1,.4,1.2,12.75,12.75,0,0,1,.4,1.4c.2-.4.2-1,.4-1.4a2.89,2.89,0,0,0,.4-1.4l5-12.8a2.76,2.76,0,0,1,.6-.8,1.53,1.53,0,0,1,1-.4h4.8Z"/><path class="cls-2" d="M49.51,306v4.44H30.31V306h7V285.72c0-.8,0-1.63.08-2.48l-5,4.18a2.11,2.11,0,0,1-.85.42,2,2,0,0,1-1.45-.24,1.29,1.29,0,0,1-.43-.4l-1.87-2.56,10.58-9h4.87V306Z"/><path class="cls-2" d="M62.26,288.28a20.71,20.71,0,0,1,2.2-.34,18.15,18.15,0,0,1,2-.11,13.28,13.28,0,0,1,4.83.81,9.93,9.93,0,0,1,3.5,2.26A9.45,9.45,0,0,1,77,294.27a11.86,11.86,0,0,1,.72,4.17,12.86,12.86,0,0,1-1,5,11.46,11.46,0,0,1-2.7,3.9,12.18,12.18,0,0,1-4.1,2.5,14.31,14.31,0,0,1-5.14.89,14.1,14.1,0,0,1-3.1-.33,16.41,16.41,0,0,1-2.75-.9,15.35,15.35,0,0,1-2.37-1.3,14.87,14.87,0,0,1-2-1.55l1.82-2.52a1.79,1.79,0,0,1,1.52-.81,2.38,2.38,0,0,1,1.22.38c.42.26.89.54,1.43.84a12.52,12.52,0,0,0,1.89.84,7.89,7.89,0,0,0,2.63.38,7.36,7.36,0,0,0,2.88-.52,5.75,5.75,0,0,0,2.08-1.48,6.29,6.29,0,0,0,1.25-2.26,9.24,9.24,0,0,0,.42-2.84,5.88,5.88,0,0,0-1.65-4.43,6.71,6.71,0,0,0-4.86-1.59,15.13,15.13,0,0,0-5.06.91l-3.7-1.06,2.88-16.85H76.49v2.52a2.84,2.84,0,0,1-.79,2.07,3.73,3.73,0,0,1-2.69.79H63.48Z"/><path class="cls-2" d="M107,293a28.35,28.35,0,0,1-1,7.88,16,16,0,0,1-2.69,5.53,10.76,10.76,0,0,1-4,3.25,11.93,11.93,0,0,1-5.06,1.07,11.69,11.69,0,0,1-5-1.07,10.67,10.67,0,0,1-4-3.25,16,16,0,0,1-2.67-5.53,32.9,32.9,0,0,1,0-15.78,16.14,16.14,0,0,1,2.67-5.52,10.67,10.67,0,0,1,4-3.25,11.84,11.84,0,0,1,5-1.07,12.08,12.08,0,0,1,5.06,1.07,10.76,10.76,0,0,1,4,3.25,16.16,16.16,0,0,1,2.69,5.52A28.35,28.35,0,0,1,107,293Zm-6.12,0a29.19,29.19,0,0,0-.55-6.24,12.55,12.55,0,0,0-1.48-3.94,5.29,5.29,0,0,0-2.12-2.05,5.63,5.63,0,0,0-2.5-.59,5.53,5.53,0,0,0-2.46.59,5.32,5.32,0,0,0-2.1,2.05,12.83,12.83,0,0,0-1.45,3.94,36.32,36.32,0,0,0,0,12.48,12.76,12.76,0,0,0,1.45,3.93,5.32,5.32,0,0,0,2.1,2.05,5.4,5.4,0,0,0,2.46.59,5.5,5.5,0,0,0,2.5-.59,5.29,5.29,0,0,0,2.12-2.05,12.48,12.48,0,0,0,1.48-3.93A29.25,29.25,0,0,0,100.87,293Z"/><path class="cls-2" d="M134.83,293a28.35,28.35,0,0,1-1,7.88,16.21,16.21,0,0,1-2.69,5.53,10.79,10.79,0,0,1-4.06,3.25,11.89,11.89,0,0,1-5,1.07,11.76,11.76,0,0,1-5-1.07,10.82,10.82,0,0,1-4-3.25,16.19,16.19,0,0,1-2.66-5.53,32.9,32.9,0,0,1,0-15.78,16.32,16.32,0,0,1,2.66-5.52,10.82,10.82,0,0,1,4-3.25,11.91,11.91,0,0,1,5-1.07,12,12,0,0,1,5,1.07,10.79,10.79,0,0,1,4.06,3.25,16.34,16.34,0,0,1,2.69,5.52A28.35,28.35,0,0,1,134.83,293Zm-6.12,0a29.19,29.19,0,0,0-.55-6.24,12.55,12.55,0,0,0-1.48-3.94,5.29,5.29,0,0,0-2.12-2.05,5.63,5.63,0,0,0-2.5-.59,5.5,5.5,0,0,0-2.46.59,5.32,5.32,0,0,0-2.1,2.05,12.58,12.58,0,0,0-1.45,3.94,36.32,36.32,0,0,0,0,12.48,12.51,12.51,0,0,0,1.45,3.93,5.14,5.14,0,0,0,4.56,2.64,5.5,5.5,0,0,0,2.5-.59,5.29,5.29,0,0,0,2.12-2.05,12.48,12.48,0,0,0,1.48-3.93A29.25,29.25,0,0,0,128.71,293Z"/><path class="cls-2" d="M162.67,293a28.35,28.35,0,0,1-1,7.88,16.21,16.21,0,0,1-2.69,5.53A10.79,10.79,0,0,1,155,309.7a11.89,11.89,0,0,1-5,1.07,11.76,11.76,0,0,1-5-1.07,10.82,10.82,0,0,1-4-3.25,16.19,16.19,0,0,1-2.66-5.53,32.9,32.9,0,0,1,0-15.78,16.32,16.32,0,0,1,2.66-5.52,10.82,10.82,0,0,1,4-3.25,11.91,11.91,0,0,1,5-1.07,12,12,0,0,1,5,1.07,10.79,10.79,0,0,1,4.06,3.25,16.34,16.34,0,0,1,2.69,5.52A28.35,28.35,0,0,1,162.67,293Zm-6.12,0a29.19,29.19,0,0,0-.55-6.24,12.55,12.55,0,0,0-1.48-3.94,5.29,5.29,0,0,0-2.12-2.05,5.63,5.63,0,0,0-2.5-.59,5.5,5.5,0,0,0-2.46.59,5.32,5.32,0,0,0-2.1,2.05,12.58,12.58,0,0,0-1.45,3.94,36.32,36.32,0,0,0,0,12.48,12.51,12.51,0,0,0,1.45,3.93,5.14,5.14,0,0,0,4.56,2.64,5.5,5.5,0,0,0,2.5-.59,5.29,5.29,0,0,0,2.12-2.05,12.48,12.48,0,0,0,1.48-3.93A29.25,29.25,0,0,0,156.55,293Z"/><path class="cls-2" d="M189.5,296.47h-9.31v9.89h-4.82v-9.89H166.1v-4.39h9.27v-9.84h4.82v9.84h9.31Z"/></svg>