<svg height="480pt" viewBox="0 0 480 480.0401" width="480pt" xmlns="http://www.w3.org/2000/svg"><path d="m472.023438 0h-464c-4.417969 0-8.0000005 3.582031-8.0000005 8v32c0 4.417969 3.5820315 8 8.0000005 8h88v208h-8c-4.417969 0-8 3.582031-8 8v24h-8c-4.417969 0-8 3.582031-8 8v24h-8c-3.667969 0-6.867188 2.496094-7.757813 6.054688l-7.550781 30.21875-38.839844 46.605468c-1.988281 2.386719-2.417969 5.707032-1.097656 8.515625 1.316406 2.8125 4.144531 4.605469 7.246094 4.605469h56.800781c3.785156 18.644531 20.179687 32.039062 39.199219 32.039062 19.023437 0 35.417968-13.394531 39.203124-32.039062h56.796876c3.105468 0 5.933593-1.792969 7.25-4.605469 1.316406-2.808593.890624-6.128906-1.097657-8.515625l-38.839843-46.605468-7.550782-30.21875c-.890625-3.558594-4.089844-6.054688-7.761718-6.054688h-8v-24c0-4.417969-3.582032-8-8-8h-8v-24c0-4.417969-3.582032-8-8-8h-8v-208h120v32h-8c-4.417969 0-8 3.582031-8 8v24h-8c-4.417969 0-8 3.582031-8 8v24h-8c-3.667969 0-6.867188 2.496094-7.757813 6.054688l-7.441406 29.847656-46.398438 46.441406c-2.28125 2.28125-2.96875 5.707031-1.746093 8.691406 1.226562 2.984375 4.121093 4.941406 7.34375 4.964844h64.800781c3.785156 18.644531 20.179687 32.039062 39.199219 32.039062 19.023437 0 35.417968-13.394531 39.203124-32.039062h64.796876c3.238281 0 6.152343-1.949219 7.390624-4.9375 1.238282-2.988281.554688-6.429688-1.734374-8.71875l-46.398438-46.398438-7.464844-29.847656c-.878906-3.589844-4.097656-6.109375-7.792968-6.097656h-8v-24c0-4.417969-3.582032-8-8-8h-8v-24c0-4.417969-3.582032-8-8-8h-8v-32h120v240h-8c-4.417969 0-8 3.582031-8 8v24h-8c-4.417969 0-8 3.582031-8 8v24h-8c-3.667969 0-6.867188 2.496094-7.757813 6.054688l-7.550781 30.21875-38.839844 46.605468c-1.988281 2.386719-2.417969 5.707032-1.097656 8.515625 1.316406 2.8125 4.144531 4.605469 7.246094 4.605469h56.800781c3.785156 18.644531 20.179687 32.039062 39.199219 32.039062 19.023437 0 35.417968-13.394531 39.203124-32.039062h56.796876c3.105468 0 5.933593-1.792969 7.25-4.605469 1.316406-2.808593.890624-6.128906-1.097657-8.515625l-38.839843-46.605468-7.550782-30.21875c-.890625-3.558594-4.089844-6.054688-7.761718-6.054688h-8v-24c0-4.417969-3.582032-8-8-8h-8v-24c0-4.417969-3.582032-8-8-8h-8v-240h88c4.417968 0 8-3.582031 8-8v-32c0-4.417969-3.582032-8-8-8zm-368 432c-10.167969-.011719-19.226563-6.417969-22.628907-16h45.261719c-3.402344 9.582031-12.464844 15.988281-22.632812 16zm-78.917969-32 26.671875-32h104.496094l26.671874 32zm124.671875-48h-91.503906l4-16h83.503906zm-69.753906-32v-16h48v16zm32-32h-16v-16h16zm128-32c-10.167969-.011719-19.226563-6.417969-22.628907-16h45.261719c-3.402344 9.582031-12.464844 15.988281-22.632812 16zm-84.6875-32 32-32h105.378906l32 32zm130.441406-48h-91.503906l4-16h83.503906zm-69.753906-32v-16h48v16zm16-32v-16h16v16zm144 352c-10.167969-.011719-19.226563-6.417969-22.628907-16h45.261719c-3.402344 9.582031-12.464844 15.988281-22.632812 16zm-78.917969-32 26.671875-32h104.496094l26.671874 32zm124.671875-48h-91.503906l4-16h83.503906zm-69.753906-32v-16h48v16zm16-32v-16h16v16zm-352-288v-16h80v16zm96 0v-16h120v16zm136 0v-16h120v16zm216 0h-80v-16h80zm0 0"/><path d="m168.023438 280h16v16h-16zm0 0"/><path d="m304.023438 264h16v16h-16zm0 0"/><path d="m272.023438 320h16v16h-16zm0 0"/><path d="m440.023438 304h16v16h-16zm0 0"/><path d="m24.023438 256h16v16h-16zm0 0"/><path d="m216.023438 352h16v16h-16zm0 0"/></svg>