<?xml version="1.0" encoding="utf-8"?>
<!-- Generator: Adobe Illustrator 24.2.3, SVG Export Plug-In . SVG Version: 6.00 Build 0)  -->
<svg width="106px" height="112px"  version="1.1" id="Layer_1" xmlns="http://www.w3.org/2000/svg" xmlns:xlink="http://www.w3.org/1999/xlink" x="0px" y="0px"
	 viewBox="0 0 360 378" style="enable-background:new 0 0 360 378;" xml:space="preserve">
<style type="text/css">
	.st0{fill:#646564;}
	.st1{fill:#F70114;}
	.st2{fill:#E61E27;}
	.st3{fill:#656464;}
</style>
<g>
	<g>
		<g>
			<path class="st0" d="M141,184.1c-2.4,0-5-0.4-7.2-1.6l-42.4-20.6c-2.8-1.4-5-4-5.8-7l0,0c-0.2-0.2-0.2-0.4-0.2-0.8l-0.2-1
				c0-0.2,0-0.2,0-0.4v-0.6v-0.2v-0.6c0-0.2,0-0.2,0-0.4l0.2-1c0-0.4,0.2-0.4,0.2-0.8l0,0c0.2-0.6,0.4-1.4,0.6-2
				c1-2.2,2.8-4,5.2-5.2l0.4-0.2l10.8-5.4c1.8-0.8,4-0.2,4.8,1.6s0.2,4-1.6,4.8l-11.2,5.4c-0.8,0.4-1.4,1-1.8,1.8
				c-0.2,0.2-0.2,0.4-0.4,0.6v0.2v0.4v0.4v0.4v0.4v0.2c0.4,1.2,1,2,2,2.4l42.4,20.6c2.4,1.4,5.4,1.4,8.2,0l41.6-20.4c0,0,0,0,0.2,0
				l0.4-0.2c0.8-0.4,1.4-1,1.8-1.8l0,0c0-0.2,0.2-0.4,0.2-0.6v-0.2v-0.8v-0.4v-0.4v-0.2c-0.4-1.2-1-2-2-2.4H187l-13-6.8
				c-1.8-1-2.4-3.2-1.4-4.8c1-1.8,3.2-2.4,4.8-1.4l13,7.2c2.8,1.4,5,4,5.8,7l0,0c0.2,0.2,0.2,0.4,0.2,0.6l0.2,1c0,0.2,0,0.2,0,0.4
				v0.4c0,0.2,0,0.2,0,0.4v0.6c0,0.2,0,0.2,0,0.4l-0.2,1c0,0.4-0.2,0.4-0.2,0.8l0,0c-0.2,0.6-0.4,1.4-0.6,2v0.2
				c-1.2,2.2-2.8,3.8-5,5h-0.2c0,0,0,0-0.2,0l-42,20.4C145.8,183.5,143.4,184.1,141,184.1z"/>
		</g>
		<g>
			<path class="st2" d="M139.4,157.1c-2.4,0-5-0.4-7.2-1.6l-42-20.6c-3.8-1.8-6.2-5.6-6.2-10c0-4.4,2.4-8.2,6.2-10l16.6-8.2
				c1.8-0.8,4-0.2,4.8,1.6s0.2,4-1.6,4.8l-16.6,8.2c-1.4,0.6-2.2,2-2.2,3.4s0.8,2.8,2.2,3.4l42.2,20.6c2.4,1.4,5.4,1.4,8.2,0
				l42.2-20.6c1.4-0.6,2.2-2,2.2-3.4s-0.8-2.8-2.2-3.4l-16.6-8.2c-1.8-0.8-2.4-3-1.6-4.8c0.8-1.8,3-2.4,4.8-1.6l16.6,8.2
				c3.8,1.8,6.2,5.6,6.2,10c0,4.4-2.4,8.2-6.2,10l-42.6,20.6C144.2,156.7,142,157.1,139.4,157.1z"/>
		</g>
		<path class="st0" d="M275.8,102.5V37.9c0-2-1.6-3.6-3.6-3.6h-4.8c-42.6,0-60.4-17-60.6-17l-3.4-3.6c-0.6-0.6-1.6-1.2-2.6-1.2
			s-1.8,0.4-2.4,1l-3.4,3.4c-0.2,0.4-18,17.2-60.8,17.2h-4.8c-2,0-3.6,1.6-3.6,3.6v28.6L92.2,82.7l-0.4,0.2c-2.2,1.2-4,2.8-5.2,5.2
			c-0.4,0.6-0.4,1.4-0.6,2c-0.2,0.2-0.2,0.4-0.2,0.8l-0.4,0.8c0,0.2,0,0.2,0,0.4v0.6v0.2v0.8c0,0.2,0,0.2,0,0.4l0.2,1
			c0,0.4,0.2,0.4,0.2,0.8c0.8,3.2,3,5.6,5.8,7l42.2,20.6c2.4,1.2,4.6,1.6,7.2,1.6s5-0.4,7.2-1.6l42-20.2c0,0,0,0,0.2,0l0.2-0.2
			c2.2-1,4-2.8,5-5v-0.4c0.4-0.4,0.4-1.2,0.6-2c0.2-0.4,0.2-0.4,0.2-0.8l0.2-1c0-0.2,0-0.2,0-0.4v-0.6c0-0.2,0-0.2,0-0.4v-0.6
			c0-0.2,0-0.2,0-0.4l-0.6-0.8c0-0.4-0.2-0.4-0.2-0.8c-0.8-3.2-3-5.6-5.8-7l-42-20.4c-2.4-1.2-4.6-1.6-7.2-1.6c-1,0-1.8,0.2-2.6,0.4
			l-5.4,2.2v-22h1.4c46.2,0,65.6-19,65.8-19.2l1-1l1,1c0.2,0.2,19.4,19.2,65.8,19.2h1.4c0,17,0,34.4,0,51.4c0,9,0.4,17.4-1.8,26.2
			c-2.4,8.2-6,15.8-10.4,23c-13.6,21.6-34,38.6-54.8,53l-0.6,0.4l-0.6-0.4c-12.8-8.4-24-17-33.4-26.6c-1.4-1.4-3.6-1.4-5.2,0
			c-1.4,1.4-1.4,3.6,0,5.2c9.8,9.6,21.4,19,34.6,27.4l2.6,1.8c0.6,0.4,1.4,0.4,2,0.4s1.4-0.2,2-0.6l2.6-1.8
			c30.2-21.2,51.2-43.2,62.2-65.8C276.6,118.1,276.2,106.3,275.8,102.5z M140.8,67.9L140.8,67.9c1.4,0,2.8,0.4,4.2,1l42.2,20.6
			c1,0.4,1.8,1.4,2,2.4v0.2v0.4v0.4v0.8v0.2c0,0.4-0.2,0.4-0.2,0.6l0,0c-0.4,0.8-1,1.4-1.8,1.8l-0.4,0.2c0,0,0,0-0.2,0L145,117.1
			c-2.6,1.4-5.4,1.4-8.2,0L94.6,96.5c-1-0.4-1.8-1.4-2-2.4v-0.4v-0.4v-0.4v-0.4v-0.4v-0.2c0-0.4,0.2-0.4,0.4-0.6
			c0.4-0.8,1-1.4,1.8-1.8l35.8-17.6L140.8,67.9z"/>
	</g>
	<g>
		<path class="st0" d="M31.8,266.1c0,0.8-0.2,1.6-0.8,2.2c-0.6,0.6-1.4,0.8-2.8,0.8h-10l-1.2,7.6c1.6-0.4,3.2-0.4,4.6-0.4
			c1.8,0,3.6,0.2,5,0.8c1.4,0.6,2.8,1.4,3.8,2.4s1.6,2.2,2.4,3.6c0.6,1.4,0.8,2.8,0.8,4.4c0,1.8-0.4,3.8-1,5.2c-0.6,1.4-1.6,3-3,4.2
			c-1.2,1-2.8,2.2-4.4,2.8c-1.6,0.6-3.6,0.8-5.4,0.8c-1,0-2.4-0.2-3.4-0.4c-1-0.2-2.2-0.6-3-1c-0.8-0.4-1.6-0.8-2.6-1.4
			c-0.8-0.4-1.4-1-2.2-1.6l1.8-2.8c0.4-0.6,1-0.8,1.6-0.8c0.4,0,0.8,0.2,1.2,0.4c0.4,0.2,0.8,0.6,1.4,0.8c0.6,0.2,1.2,0.6,2,0.8
			c0.8,0.2,1.6,0.4,2.8,0.4c1,0,2.2-0.2,3-0.6s1.6-0.8,2.2-1.4s1-1.4,1.2-2.4c0.2-0.8,0.4-1.8,0.4-3c0-1.8-0.6-3.6-1.6-4.6
			c-1.2-1-3-1.6-5-1.6c-1.6,0-3.6,0.4-5.2,1l-4-1l3-17.8h18.2v2.6H31.8z"/>
		<path class="st0" d="M38.8,282.1h13v5.2h-13V282.1z"/>
		<path class="st0" d="M66.8,307.1c-0.2,0.4-0.4,0.8-0.6,1s-0.8,0.4-1.2,0.4h-4.6l4.8-10.4l-10.6-24.2H60c0.4,0,0.8,0.2,1.2,0.4
			c0.2,0.2,0.4,0.4,0.6,0.8l5.4,13.4c0.2,0.4,0.4,0.8,0.4,1.4c0.2,0.4,0.2,1,0.4,1.4c0.2-0.4,0.2-1,0.4-1.4c0.2-0.4,0.4-0.8,0.4-1.4
			l5.2-13.4c0.2-0.4,0.4-0.6,0.6-0.8c0.2-0.2,0.6-0.4,1-0.4h5L66.8,307.1z"/>
		<path class="st0" d="M94.6,273.5c1.6,0,3.2,0.2,4.6,0.8c1.4,0.4,2.6,1.2,3.6,2.4c1,1,1.6,2.4,2.4,3.8c0.6,1.4,0.8,3.2,0.8,5
			c0,0.4,0,0.8,0,1.2c0,0.2-0.2,0.6-0.2,0.8c-0.2,0.2-0.2,0.2-0.4,0.4c-0.2,0.2-0.4,0.2-0.6,0.2h-16c0.2,2.8,0.8,4.6,2.2,5.8
			c1.2,1.2,3,1.8,5,1.8c1,0,1.8-0.2,2.6-0.4c0.6-0.2,1.4-0.4,1.8-0.8s1-0.6,1.4-0.8c0.4-0.2,0.8-0.4,1.2-0.4c0.2,0,0.4,0,0.6,0.2
			c0.2,0,0.4,0.2,0.4,0.4l1.8,2.4c-0.6,0.8-1.4,1.4-2.4,2.2c-0.8,0.6-1.6,1-2.8,1.2c-0.8,0.4-1.8,0.6-3,0.6c-1,0-1.8,0.2-2.8,0.2
			c-1.8,0-3.6-0.2-5-0.8c-1.4-0.6-3-1.4-4-2.8c-1-1.2-2-2.6-2.8-4.4c-0.6-1.6-1-3.8-1-6c0-1.6,0.2-3.4,0.8-5c0.6-1.4,1.4-3,2.6-4
			c1-1.2,2.4-2.2,4-2.8C90.8,273.9,92.6,273.5,94.6,273.5z M94.6,278.1c-1.8,0-3.2,0.4-4.2,1.4s-1.6,2.6-1.8,4.4h11.8
			c0-0.8-0.2-1.6-0.4-2.4c-0.2-0.6-0.6-1.2-1-1.8c-0.4-0.6-1-1-1.6-1.2C96.4,278.1,95.6,278.1,94.6,278.1z"/>
		<path class="st0" d="M131.4,300.1h-3c-0.6,0-1,0-1.4-0.2s-0.6-0.6-0.8-1l-0.6-1.8c-0.6,0.6-1.2,1-1.8,1.4c-0.6,0.4-1.2,0.8-1.8,1
			c-0.6,0.2-1.4,0.6-2,0.6c-0.8,0.2-1.6,0.2-2.6,0.2s-2.2-0.2-3-0.4c-0.8-0.2-1.6-0.8-2.4-1.2c-0.6-0.6-1.2-1.2-1.4-2.4
			c-0.4-0.8-0.6-1.8-0.6-3.2c0-1,0.2-1.8,0.8-3c0.4-1,1.4-1.8,2.6-2.6c1.2-0.8,2.8-1.4,4.8-1.8c1.8-0.4,4.4-0.8,7.4-0.8v-1.4
			c0-1.6-0.4-3.2-1-4s-1.8-1.2-3.2-1.2c-1,0-1.8,0.2-2.6,0.4c-0.6,0.2-1.2,0.4-1.6,0.8s-1,0.6-1.4,0.8c-0.4,0.2-0.8,0.4-1.4,0.4
			c-0.4,0-0.8-0.2-1-0.4s-0.6-0.4-0.8-0.8l-1-2.2c3-2.8,6.6-4.2,11-4.2c1.4,0,3,0.2,4,0.8s2.2,1.2,3,2.2c0.8,0.8,1.4,1.8,1.8,3.2
			c0.4,1.2,0.6,2.6,0.6,4v16.8H131.4z M119.2,296.1c0.6,0,1.2,0,1.6-0.2c0.6-0.2,1-0.2,1.4-0.4c0.4-0.2,1-0.4,1.4-0.8
			s0.8-0.8,1.2-1.2v-4.4c-1.8,0-3.4,0.2-4.6,0.4c-1.2,0.2-2.4,0.4-3,0.8c-0.8,0.4-1.2,0.8-1.6,1.2c-0.4,0.4-0.4,1-0.4,1.4
			c0,1,0.4,1.8,1,2.4C117.2,295.9,118,296.1,119.2,296.1z"/>
		<path class="st0" d="M137.4,300.1v-26h3.6c0.6,0,1,0.2,1.2,0.4c0.2,0.2,0.4,0.6,0.4,1.2l0.4,3.2c0.8-1.6,2-3,3.4-3.8
			c1.2-0.8,2.8-1.4,4.2-1.4c1.2,0,2.4,0.2,3.2,0.8l-0.8,4.6c0,0.2-0.2,0.4-0.4,0.6s-0.4,0.2-0.6,0.2c-0.2,0-0.6,0-1-0.2
			s-1-0.2-1.6-0.2c-1.2,0-2.4,0.4-3.4,1c-0.8,0.6-1.6,1.6-2.4,3.2v16.2h-6v0.2H137.4z"/>
		<path class="st0" d="M167.8,300.1v-26h3.8c0.8,0,1.2,0.4,1.6,1l0.4,1.8c0.4-0.4,0.8-1,1.4-1.4c0.4-0.4,1-0.8,1.6-1
			s1.2-0.6,1.8-0.6c0.6-0.2,1.2-0.2,2.2-0.2c1.6,0,3,0.4,4,1.2c1,0.8,1.8,2.2,2.4,3.6c0.4-0.8,0.8-1.6,1.4-2.4
			c0.6-0.6,1.2-1,2.2-1.4c0.6-0.4,1.4-0.6,2.4-0.8c0.8-0.2,1.6-0.2,2.6-0.2c1.4,0,2.8,0.2,3.8,0.6s2.2,1,2.8,1.8
			c0.8,0.8,1.2,1.8,1.6,3.2c0.4,1.2,0.6,2.6,0.6,4.2v16.6H198v-16.6c0-1.6-0.4-3-1-3.8s-1.8-1.2-3.2-1.2c-0.6,0-1.2,0.2-1.8,0.4
			s-1,0.6-1.4,1s-0.8,0.8-1,1.4s-0.4,1.2-0.4,2.2v16.6h-6.4v-16.6c0-1.6-0.4-3-1-3.8s-1.6-1.2-3.2-1.2c-0.8,0-1.6,0.2-2.6,0.6
			c-0.8,0.4-1.4,1-2.2,1.8v19.2L167.8,300.1L167.8,300.1z"/>
		<path class="st0" d="M230.8,300.1H228c-0.6,0-1,0-1.4-0.2s-0.6-0.6-0.8-1l-0.6-1.8c-0.6,0.6-1.2,1-1.8,1.4s-1.2,0.8-1.8,1
			s-1.4,0.6-2,0.6c-0.8,0.2-1.6,0.2-2.6,0.2s-2-0.2-3-0.4c-0.8-0.2-1.6-0.8-2.4-1.2c-0.6-0.4-1.2-1.2-1.4-2.4
			c-0.4-0.8-0.6-1.8-0.6-3.2c0-1,0.2-1.8,0.8-3c0.4-1,1.4-1.8,2.6-2.6c1.2-0.8,2.8-1.4,4.8-1.8c1.8-0.4,4.4-0.8,7.4-0.8v-1.4
			c0-1.6-0.4-3.2-1-4s-1.8-1.2-3.2-1.2c-1,0-1.8,0.2-2.6,0.4c-0.6,0.2-1.2,0.4-1.6,0.8c-0.4,0.4-1,0.6-1.4,0.8
			c-0.4,0.2-0.8,0.4-1.4,0.4c-0.4,0-0.8-0.2-1-0.4s-0.6-0.4-0.8-0.8l-1-2.2c3-2.8,6.6-4.2,11-4.2c1.4,0,3,0.2,4,0.8
			c1.2,0.4,2.2,1.2,3,2.2c0.8,0.8,1.4,1.8,1.8,3.2c0.4,1.2,0.6,2.6,0.6,4v16.8L230.8,300.1L230.8,300.1z M218.6,296.1
			c0.6,0,1.2,0,1.6-0.2c0.6-0.2,1-0.2,1.4-0.4s1-0.4,1.4-0.8s0.8-0.8,1.2-1.2v-4.4c-1.8,0-3.4,0.2-4.6,0.4c-1.2,0.2-2.4,0.4-3,0.8
			s-1.2,0.8-1.6,1.2c-0.2,0.4-0.4,1-0.4,1.4c0,1,0.4,1.8,1,2.4C216.8,295.9,217.6,296.1,218.6,296.1z"/>
		<path class="st0" d="M245.6,300.5c-2.4,0-4-0.6-5.2-1.8c-1.2-1.2-1.8-3-1.8-5.2v-14.8h-3c-0.4,0-0.6-0.2-0.8-0.4
			c-0.2-0.2-0.4-0.6-0.4-1v-2.6l4.2-0.6l1.2-7.2c0-0.4,0.2-0.6,0.4-0.8c0.2-0.2,0.6-0.2,0.8-0.2h3.2v8.2h7v4.4h-7v14
			c0,0.8,0.2,1.4,0.6,1.8c0.4,0.4,1,0.6,1.6,0.6c0.4,0,0.6,0,1-0.2s0.4-0.2,0.6-0.2s0.4-0.2,0.4-0.2c0.2,0,0.2-0.2,0.4-0.2
			s0.4,0,0.4,0.2c0.2,0,0.2,0.2,0.4,0.4l1.8,3c-0.8,0.8-1.8,1.2-3.2,1.6C248,300.3,246.8,300.5,245.6,300.5z"/>
		<path class="st0" d="M267.4,273.5c1.6,0,3.2,0.2,4.6,0.8c1.4,0.4,2.6,1.2,3.6,2.4c1,1,1.6,2.4,2.4,3.8c0.6,1.4,0.8,3.2,0.8,5
			c0,0.4,0,0.8,0,1.2c0,0.2-0.2,0.6-0.2,0.8c-0.2,0.2-0.2,0.2-0.4,0.4c-0.2,0-0.4,0.2-0.6,0.2h-16c0.2,2.8,0.8,4.6,2.2,5.8
			s3,1.8,5,1.8c1,0,1.8-0.2,2.6-0.4c0.6-0.2,1.4-0.4,1.8-0.8c0.6-0.2,1-0.6,1.4-0.8c0.4-0.2,0.8-0.4,1.2-0.4c0.2,0,0.4,0,0.6,0.2
			c0.2,0,0.4,0.2,0.4,0.4l1.8,2.4c-0.6,0.8-1.4,1.4-2.4,2.2s-1.6,1-2.8,1.2c-0.8,0.4-1.8,0.6-3,0.6c-1,0.2-1.8,0.2-2.8,0.2
			c-1.8,0-3.6-0.2-5-0.8s-3-1.4-4-2.8c-1-1.2-2.2-2.6-2.8-4.4c-0.6-1.6-1-3.8-1-6c0-1.6,0.2-3.4,0.8-5c0.6-1.4,1.4-3,2.6-4
			c1-1.2,2.4-2.2,4-2.8C263.6,273.9,265.6,273.5,267.4,273.5z M267.6,278.1c-1.8,0-3.2,0.4-4.2,1.4s-1.6,2.6-1.8,4.4h11.8
			c0-0.8-0.2-1.6-0.4-2.4c-0.2-0.6-0.6-1.2-1-1.8c-0.4-0.6-1-1-1.6-1.2C269.2,278.1,268.4,278.1,267.6,278.1z"/>
		<path class="st0" d="M283.8,300.1v-26h3.6c0.6,0,1,0.2,1.2,0.4c0.2,0.2,0.4,0.6,0.4,1.2l0.4,3.2c0.8-1.6,2.2-3,3.4-3.8
			c1.2-0.8,2.8-1.4,4.2-1.4c1.2,0,2.4,0.2,3.2,0.8l-0.8,4.6c0,0.2-0.2,0.4-0.4,0.6c-0.2,0.2-0.4,0.2-0.6,0.2s-0.6,0-1-0.2
			s-1-0.2-1.6-0.2c-1.2,0-2.6,0.4-3.4,1s-1.6,1.6-2.4,3.2v16.2h-6v0.2H283.8z"/>
		<path class="st0" d="M312.2,266.5c0,0.6-0.2,1-0.4,1.4c-0.2,0.4-0.4,0.8-0.8,1.2c-0.4,0.4-0.8,0.6-1.2,0.8c-0.4,0.2-1,0.4-1.4,0.4
			c-0.6,0-1-0.2-1.4-0.4c-0.4-0.2-0.8-0.4-1.2-0.8c-0.4-0.4-0.6-0.8-0.8-1.2c-0.2-0.4-0.4-1-0.4-1.4c0-0.6,0-1,0.4-1.4
			s0.4-0.8,0.8-1.2c0.4-0.4,0.8-0.6,1.2-0.8c0.4-0.2,1-0.4,1.4-0.4c0.6,0,1,0.2,1.4,0.4c0.4,0.2,0.8,0.4,1.2,0.8
			c0.4,0.4,0.6,0.8,0.8,1.2C312,265.3,312.2,265.7,312.2,266.5z M311,273.9v26h-6.2v-26H311z"/>
		<path class="st0" d="M338.6,300.1h-2.8c-0.6,0-1,0-1.4-0.2s-0.6-0.6-0.8-1l-0.6-1.8c-0.6,0.6-1.2,1-1.8,1.4
			c-0.6,0.4-1.2,0.8-1.8,1c-0.6,0.2-1.4,0.6-2.2,0.6c-0.8,0.2-1.6,0.2-2.6,0.2s-2.2-0.2-3-0.4c-0.8-0.2-1.6-0.8-2.4-1.2
			c-0.6-0.6-1.2-1.2-1.4-2.4c-0.2-1-0.6-1.8-0.6-3.2c0-1,0.2-1.8,0.8-3c0.4-1,1.4-1.8,2.6-2.6c1.2-0.8,2.8-1.4,4.8-1.8
			c1.8-0.4,4.4-0.8,7.4-0.8v-1.4c0-1.6-0.4-3.2-1-4s-1.8-1.2-3.2-1.2c-1,0-1.8,0.2-2.6,0.4c-0.6,0.2-1.2,0.4-1.6,0.8s-1,0.6-1.4,0.8
			c-0.4,0.2-0.8,0.4-1.4,0.4c-0.4,0-0.8-0.2-1-0.4s-0.6-0.4-0.6-0.8l-1-2.2c3-2.8,6.6-4.2,11-4.2c1.4,0,3,0.2,4,0.8
			c1,0.6,2.2,1.2,3,2.2c0.8,0.8,1.4,1.8,1.8,3.2c0.4,1.2,0.6,2.6,0.6,4v16.8L338.6,300.1L338.6,300.1z M326.4,296.1
			c0.6,0,1.2,0,1.6-0.2c0.6-0.2,1-0.2,1.4-0.4c0.4-0.2,1-0.4,1.4-0.8s0.8-0.8,1.2-1.2v-4.4c-1.8,0-3.4,0.2-4.6,0.4
			c-1.2,0.2-2.4,0.4-3,0.8s-1.2,0.8-1.6,1.2c-0.4,0.4-0.4,1-0.4,1.4c0,1,0.4,1.8,1,2.4C324.6,295.9,325.4,296.1,326.4,296.1z"/>
		<path class="st0" d="M351.4,262.5v37.6H345v-37.6H351.4z"/>
		<path class="st0" d="M76.6,331.1h5c0.4,0,0.8,0.2,1.2,0.4c0.4,0.2,0.4,0.4,0.6,0.8l3.8,13.8c0.2,0.8,0.4,1.4,0.4,2.4
			c0.2,0.6,0.2,1.4,0.4,2c0.2-0.6,0.4-1.4,0.6-2s0.4-1.4,0.6-2.4l4.4-13.8c0-0.4,0.2-0.6,0.6-0.8c0.2-0.2,0.6-0.4,1-0.4H98
			c0.4,0,0.8,0.2,1,0.4c0.2,0.2,0.4,0.4,0.6,0.8l4.2,14.2c0.2,0.6,0.4,1.4,0.6,2.2s0.4,1.4,0.4,2.2c0.2-0.6,0.2-1.4,0.4-2.2
			c0.2-0.6,0.4-1.4,0.6-2.4l3.8-13.8c0-0.4,0.2-0.6,0.6-0.8c0.4-0.2,0.6-0.4,1-0.4h4.8l-8.2,26h-5c-0.6,0-0.8-0.4-1.2-1L97,341.1
			c-0.2-0.4-0.2-1-0.4-1.4c-0.2-0.4-0.2-1-0.4-1.4c0,0.4-0.2,1-0.4,1.4c-0.2,0.4-0.2,1-0.4,1.4l-4.8,15c-0.2,0.8-0.6,1-1.4,1h-4.8
			L76.6,331.1z"/>
		<path class="st0" d="M140.2,357.1h-2.8c-0.6,0-1,0-1.4-0.2s-0.6-0.6-0.8-1l-0.6-1.8c-0.6,0.6-1.2,1-1.8,1.4s-1.2,0.8-1.8,1
			s-1.4,0.6-2.2,0.6c-0.8,0.2-1.6,0.2-2.6,0.2s-2-0.2-3-0.4c-0.8-0.2-1.6-0.8-2.4-1.2c-0.6-0.6-1.2-1.2-1.4-2.4
			c-0.4-0.8-0.6-1.8-0.6-3.2c0-1,0.2-1.8,0.8-3c0.4-1,1.4-1.8,2.6-2.6c1.2-0.8,2.8-1.4,4.8-1.8c1.8-0.4,4.4-0.8,7.4-0.8v-1.4
			c0-1.6-0.4-3.2-1-4s-1.8-1.2-3.2-1.2c-1,0-1.8,0.2-2.6,0.4c-0.6,0.2-1.2,0.4-1.6,0.8s-1,0.6-1.4,0.8c-0.4,0.2-0.8,0.4-1.4,0.4
			c-0.4,0-0.8-0.2-1-0.4c-0.2-0.2-0.6-0.4-0.8-0.8l-1-2.2c3-2.8,6.6-4.2,11-4.2c1.4,0,3,0.2,4,0.8s2,1.2,3,2.2
			c0.8,0.8,1.4,1.8,1.8,3.2s0.6,2.6,0.6,4v16.8L140.2,357.1L140.2,357.1z M128,353.3c0.6,0,1.2,0,1.6-0.2c0.6-0.2,1-0.2,1.4-0.4
			c0.4-0.2,1-0.4,1.4-0.8s0.8-0.8,1.2-1.2v-4.4c-1.8,0-3.4,0.2-4.6,0.4c-1.2,0.2-2.4,0.4-3,0.8c-0.8,0.4-1.2,0.8-1.6,1.2
			c-0.4,0.4-0.4,1-0.4,1.4c0,1,0.4,1.8,1,2.4C126,352.9,127,353.3,128,353.3z"/>
		<path class="st0" d="M146.2,357.1v-26h3.6c0.6,0,1,0.2,1.2,0.4c0.2,0.2,0.4,0.6,0.4,1.2l0.4,3.2c0.8-1.6,2.2-3,3.4-3.8
			s2.8-1.4,4.2-1.4c1.2,0,2.4,0.2,3.2,0.8l-0.8,4.6c0,0.2-0.2,0.4-0.4,0.6s-0.4,0.2-0.6,0.2c-0.2,0-0.6,0-1-0.2s-1-0.2-1.6-0.2
			c-1.2,0-2.4,0.4-3.4,1c-0.8,0.6-1.6,1.6-2.4,3.2v16.2h-6v0.2H146.2z"/>
		<path class="st0" d="M166.8,357.1v-26h3.6c0.6,0,1,0.2,1.2,0.4s0.4,0.6,0.4,1.2l0.4,3.2c0.8-1.6,2.2-3,3.4-3.8s2.8-1.4,4.2-1.4
			c1.2,0,2.4,0.2,3.2,0.8l-0.8,4.6c0,0.2-0.2,0.4-0.4,0.6s-0.4,0.2-0.6,0.2c-0.2,0-0.6,0-1-0.2s-1-0.2-1.6-0.2c-1.2,0-2.4,0.4-3.4,1
			c-0.8,0.6-1.6,1.6-2.4,3.2v16.2h-6v0.2H166.8z"/>
		<path class="st0" d="M207.4,357.1h-2.8c-0.6,0-1,0-1.4-0.2s-0.6-0.6-0.8-1l-0.6-1.8c-0.6,0.6-1.2,1-1.8,1.4s-1.2,0.8-1.8,1
			s-1.4,0.6-2.2,0.6c-0.8,0.2-1.6,0.2-2.6,0.2s-2.2-0.2-3-0.4c-0.8-0.2-1.6-0.8-2.4-1.2c-0.6-0.4-1.2-1.2-1.4-2.4
			c-0.4-0.8-0.6-1.8-0.6-3.2c0-1,0.2-1.8,0.8-3c0.4-1,1.4-1.8,2.6-2.6c1.2-0.8,2.8-1.4,4.8-1.8c1.8-0.4,4.4-0.8,7.4-0.8v-1.4
			c0-1.6-0.4-3.2-1-4s-1.8-1.2-3.2-1.2c-1,0-1.8,0.2-2.6,0.4c-0.6,0.2-1.2,0.4-1.6,0.8c-0.4,0.4-1,0.6-1.4,0.8s-0.8,0.4-1.4,0.4
			c-0.4,0-0.8-0.2-1-0.4c-0.2-0.2-0.6-0.4-0.8-0.8l-1-2.2c3-2.8,6.6-4.2,11-4.2c1.4,0,3,0.2,4,0.8c1.2,0.4,2.2,1.2,3,2.2
			c0.8,0.8,1.4,1.8,1.8,3.2c0.4,1.2,0.6,2.6,0.6,4v16.8L207.4,357.1L207.4,357.1z M195.2,353.3c0.6,0,1.2,0,1.6-0.2
			c0.6-0.2,1-0.2,1.4-0.4c0.4-0.2,1-0.4,1.4-0.8s0.8-0.8,1.2-1.2v-4.4c-1.8,0-3.4,0.2-4.6,0.4c-1.2,0.2-2.4,0.4-3,0.8
			s-1.2,0.8-1.6,1.2c-0.2,0.4-0.4,1-0.4,1.4c0,1,0.4,1.8,1,2.4C193.2,352.9,194.2,353.3,195.2,353.3z"/>
		<path class="st0" d="M213.4,357.1v-26h3.8c0.8,0,1.2,0.4,1.6,1l0.4,2c0.4-0.6,1-1,1.6-1.4s1.2-0.8,1.8-1c0.6-0.4,1.2-0.6,2-0.6
			c0.8-0.2,1.4-0.2,2.6-0.2c1.4,0,2.8,0.2,3.8,0.6s2.2,1.2,2.8,2s1.2,1.8,1.6,3.2c0.4,1.2,0.6,2.6,0.6,4v16.6h-6.4v-16.6
			c0-1.6-0.4-2.8-1-3.8s-1.8-1.2-3.4-1.2c-1,0-2.2,0.2-3,0.6c-1,0.4-1.8,1.2-2.8,2.2v18.8h-6.6v-0.2H213.4z"/>
		<path class="st0" d="M250.8,357.5c-2.4,0-4-0.6-5.2-1.8c-1.2-1.2-1.8-3-1.8-5.2v-14.4H241c-0.4,0-0.6-0.2-0.8-0.4
			c-0.2-0.2-0.4-0.6-0.4-1v-2.6l4.2-0.6l1.2-7.2c0-0.4,0.2-0.6,0.4-0.8c0.2-0.2,0.6-0.2,0.8-0.2h3.2v8.2h7v4.4h-7v14
			c0,0.8,0.2,1.4,0.6,1.8c0.4,0.4,1,0.6,1.6,0.6c0.4,0,0.6,0,1-0.2c0.2,0,0.4-0.2,0.6-0.2s0.4-0.2,0.4-0.2c0.2,0,0.2-0.2,0.4-0.2
			s0.4,0,0.4,0.2c0.2,0,0.2,0.2,0.4,0.4l1.8,3c-0.8,0.8-1.8,1.2-3.2,1.6C253.2,357.3,252,357.5,250.8,357.5z"/>
		<path class="st0" d="M271,364.1c-0.2,0.4-0.4,0.8-0.6,1s-0.8,0.4-1.2,0.4h-4.6l4.8-10.4L259,330.9h5.4c0.4,0,0.8,0.2,1.2,0.4
			c0.2,0.2,0.4,0.4,0.6,0.8l5.4,13.4c0.2,0.4,0.4,0.8,0.4,1.4c0.2,0.4,0.2,1,0.4,1.4c0.2-0.4,0.2-1,0.4-1.4c0.2-0.4,0.4-0.8,0.4-1.4
			l5.2-13.4c0.2-0.4,0.4-0.6,0.6-0.8c0.2-0.2,0.6-0.4,1-0.4h5L271,364.1z"/>
	</g>
</g>
</svg>
